<svg xmlns="http://www.w3.org/2000/svg" viewBox="0 0 64 64">
  <circle cx="32" cy="32" r="32" fill="#FF6E4F"/>
  <path d="M51.8,12.2 A28,28 0 0,1 60,32 L54,32 A22,22 0 0,0 47.6,16.4 Z" fill="#FFF6EC"/>
  <path d="M51.8,51.8 A28,28 0 0,1 32,60 L32,54 A22,22 0 0,0 47.6,47.6 Z" fill="#FFF6EC"/>
  <path d="M12.2,51.8 A28,28 0 0,1 4,32 L10,32 A22,22 0 0,0 16.4,47.6 Z" fill="#FFF6EC"/>
  <path d="M12.2,12.2 A28,28 0 0,1 32,4 L32,10 A22,22 0 0,0 16.4,16.4 Z" fill="#FFF6EC"/>
  <circle cx="32" cy="32" r="28" fill="none" stroke="#1A1410" stroke-width="1.2"/>
  <circle cx="32" cy="32" r="22" fill="none" stroke="#1A1410" stroke-width="1.2"/>
  <circle cx="32" cy="32" r="20" fill="#FF6E4F"/>
  <circle cx="32" cy="32" r="14" fill="none" stroke="#1A1410" stroke-width="2" opacity="0.25"/>
  <circle cx="32" cy="32" r="6" fill="#FFF6EC"/>
</svg>
